<mxfile host="app.diagrams.net" modified="2024-05-02T09:30:51.796Z" agent="Mozilla/5.0 (Windows NT 10.0; Win64; x64) AppleWebKit/537.36 (KHTML, like Gecko) Chrome/124.0.0.0 Safari/537.36 Edg/124.0.0.0" etag="c5udOQQ8QQFWxJlF3S6T" version="24.3.1" type="github">
  <diagram name="Page-1" id="qxB7d78xUngNtqi4gK0A">
    <mxGraphModel dx="1656" dy="759" grid="1" gridSize="10" guides="1" tooltips="1" connect="1" arrows="1" fold="1" page="1" pageScale="1" pageWidth="850" pageHeight="1100" math="0" shadow="0">
      <root>
        <mxCell id="0" />
        <mxCell id="1" parent="0" />
        <mxCell id="oUGveC6y0KKN1EqaovGq-3" value="" style="edgeStyle=orthogonalEdgeStyle;rounded=0;orthogonalLoop=1;jettySize=auto;html=1;" edge="1" parent="1" source="oUGveC6y0KKN1EqaovGq-1" target="oUGveC6y0KKN1EqaovGq-2">
          <mxGeometry relative="1" as="geometry" />
        </mxCell>
        <mxCell id="oUGveC6y0KKN1EqaovGq-6" value="Case_id" style="edgeLabel;html=1;align=center;verticalAlign=middle;resizable=0;points=[];" vertex="1" connectable="0" parent="oUGveC6y0KKN1EqaovGq-3">
          <mxGeometry x="-0.025" y="3" relative="1" as="geometry">
            <mxPoint as="offset" />
          </mxGeometry>
        </mxCell>
        <mxCell id="oUGveC6y0KKN1EqaovGq-1" value="start" style="ellipse;whiteSpace=wrap;html=1;" vertex="1" parent="1">
          <mxGeometry x="350" y="80" width="120" height="80" as="geometry" />
        </mxCell>
        <mxCell id="oUGveC6y0KKN1EqaovGq-8" value="" style="edgeStyle=orthogonalEdgeStyle;rounded=0;orthogonalLoop=1;jettySize=auto;html=1;" edge="1" parent="1" source="oUGveC6y0KKN1EqaovGq-2" target="oUGveC6y0KKN1EqaovGq-7">
          <mxGeometry relative="1" as="geometry" />
        </mxCell>
        <mxCell id="oUGveC6y0KKN1EqaovGq-10" value="Text" style="edgeLabel;html=1;align=center;verticalAlign=middle;resizable=0;points=[];" vertex="1" connectable="0" parent="oUGveC6y0KKN1EqaovGq-8">
          <mxGeometry x="0.0592" y="1" relative="1" as="geometry">
            <mxPoint as="offset" />
          </mxGeometry>
        </mxCell>
        <mxCell id="oUGveC6y0KKN1EqaovGq-18" value="" style="edgeStyle=orthogonalEdgeStyle;rounded=0;orthogonalLoop=1;jettySize=auto;html=1;entryX=0;entryY=0.5;entryDx=0;entryDy=0;" edge="1" parent="1" target="oUGveC6y0KKN1EqaovGq-14">
          <mxGeometry relative="1" as="geometry">
            <mxPoint x="321" y="305.5" as="sourcePoint" />
            <mxPoint x="160" y="780" as="targetPoint" />
            <Array as="points">
              <mxPoint x="140" y="306" />
              <mxPoint x="140" y="780" />
            </Array>
          </mxGeometry>
        </mxCell>
        <mxCell id="oUGveC6y0KKN1EqaovGq-22" value="Parameters from humanGuidence" style="edgeLabel;html=1;align=center;verticalAlign=middle;resizable=0;points=[];" vertex="1" connectable="0" parent="oUGveC6y0KKN1EqaovGq-18">
          <mxGeometry x="0.1323" y="-1" relative="1" as="geometry">
            <mxPoint as="offset" />
          </mxGeometry>
        </mxCell>
        <mxCell id="oUGveC6y0KKN1EqaovGq-2" value="&lt;span dir=&quot;ltr&quot; class=&quot;ui-provider ed bbx bby bbz bca bcb bcc bcd bce bcf bcg bch bci bcj bck bcl bcm bcn bco bcp bcq bcr bcs bct bcu bcv bcw bcx bcy bcz bda bdb bdc bdd bde&quot;&gt;&lt;p&gt;&lt;span style=&quot;font-size: inherit;&quot;&gt;retrieve_text&amp;amp;parameters():&lt;/span&gt;&lt;/p&gt;&lt;/span&gt;" style="ellipse;whiteSpace=wrap;html=1;" vertex="1" parent="1">
          <mxGeometry x="321" y="261" width="180" height="89" as="geometry" />
        </mxCell>
        <mxCell id="oUGveC6y0KKN1EqaovGq-12" value="" style="edgeStyle=orthogonalEdgeStyle;rounded=0;orthogonalLoop=1;jettySize=auto;html=1;" edge="1" parent="1" source="oUGveC6y0KKN1EqaovGq-7" target="oUGveC6y0KKN1EqaovGq-11">
          <mxGeometry relative="1" as="geometry" />
        </mxCell>
        <mxCell id="oUGveC6y0KKN1EqaovGq-13" value="dictionary" style="edgeLabel;html=1;align=center;verticalAlign=middle;resizable=0;points=[];" vertex="1" connectable="0" parent="oUGveC6y0KKN1EqaovGq-12">
          <mxGeometry x="-0.305" y="-2" relative="1" as="geometry">
            <mxPoint as="offset" />
          </mxGeometry>
        </mxCell>
        <mxCell id="oUGveC6y0KKN1EqaovGq-7" value="&lt;span dir=&quot;ltr&quot; class=&quot;ui-provider ed bbx bby bbz bca bcb bcc bcd bce bcf bcg bch bci bcj bck bcl bcm bcn bco bcp bcq bcr bcs bct bcu bcv bcw bcx bcy bcz bda bdb bdc bdd bde&quot;&gt;&lt;p&gt;&lt;span style=&quot;font-size: inherit;&quot;&gt;Chunking():&lt;/span&gt;&lt;/p&gt;&lt;/span&gt;" style="ellipse;whiteSpace=wrap;html=1;" vertex="1" parent="1">
          <mxGeometry x="320" y="420" width="180" height="80" as="geometry" />
        </mxCell>
        <mxCell id="oUGveC6y0KKN1EqaovGq-9" style="edgeStyle=orthogonalEdgeStyle;rounded=0;orthogonalLoop=1;jettySize=auto;html=1;exitX=0.5;exitY=1;exitDx=0;exitDy=0;" edge="1" parent="1" source="oUGveC6y0KKN1EqaovGq-2" target="oUGveC6y0KKN1EqaovGq-2">
          <mxGeometry relative="1" as="geometry" />
        </mxCell>
        <mxCell id="oUGveC6y0KKN1EqaovGq-15" value="" style="edgeStyle=orthogonalEdgeStyle;rounded=0;orthogonalLoop=1;jettySize=auto;html=1;entryX=1;entryY=0.5;entryDx=0;entryDy=0;" edge="1" parent="1" source="oUGveC6y0KKN1EqaovGq-11" target="oUGveC6y0KKN1EqaovGq-14">
          <mxGeometry relative="1" as="geometry" />
        </mxCell>
        <mxCell id="oUGveC6y0KKN1EqaovGq-16" value="dictionary of dictionaries" style="edgeLabel;html=1;align=center;verticalAlign=middle;resizable=0;points=[];" vertex="1" connectable="0" parent="oUGveC6y0KKN1EqaovGq-15">
          <mxGeometry x="-0.27" y="-1" relative="1" as="geometry">
            <mxPoint as="offset" />
          </mxGeometry>
        </mxCell>
        <mxCell id="oUGveC6y0KKN1EqaovGq-11" value="&lt;span dir=&quot;ltr&quot; class=&quot;ui-provider ed bbx bby bbz bca bcb bcc bcd bce bcf bcg bch bci bcj bck bcl bcm bcn bco bcp bcq bcr bcs bct bcu bcv bcw bcx bcy bcz bda bdb bdc bdd bde&quot;&gt;&lt;p&gt;&lt;span style=&quot;font-size: inherit;&quot;&gt;AI_parameters_extraction():&lt;/span&gt;&lt;/p&gt;&lt;/span&gt;" style="ellipse;whiteSpace=wrap;html=1;" vertex="1" parent="1">
          <mxGeometry x="320" y="580" width="180" height="80" as="geometry" />
        </mxCell>
        <mxCell id="oUGveC6y0KKN1EqaovGq-20" value="" style="edgeStyle=orthogonalEdgeStyle;rounded=0;orthogonalLoop=1;jettySize=auto;html=1;entryX=0.5;entryY=0;entryDx=0;entryDy=0;" edge="1" parent="1" source="oUGveC6y0KKN1EqaovGq-14" target="oUGveC6y0KKN1EqaovGq-21">
          <mxGeometry relative="1" as="geometry">
            <mxPoint x="250" y="910" as="targetPoint" />
          </mxGeometry>
        </mxCell>
        <mxCell id="oUGveC6y0KKN1EqaovGq-14" value="Eval" style="ellipse;whiteSpace=wrap;html=1;" vertex="1" parent="1">
          <mxGeometry x="160" y="750" width="180" height="80" as="geometry" />
        </mxCell>
        <mxCell id="oUGveC6y0KKN1EqaovGq-21" value="Accuracy" style="rounded=1;whiteSpace=wrap;html=1;" vertex="1" parent="1">
          <mxGeometry x="190" y="920" width="120" height="60" as="geometry" />
        </mxCell>
      </root>
    </mxGraphModel>
  </diagram>
</mxfile>
